<svg width="30" height="30" viewBox="0 0 30 30" fill="none" xmlns="http://www.w3.org/2000/svg">
<path d="M22.7398 24.2313V20.4813H18.9898V19.2313H22.7398V15.4813H23.9898V19.2313H27.7398V20.4813H23.9898V24.2313H22.7398ZM4.27852 25C3.70352 25 3.2231 24.8075 2.83727 24.4225C2.45227 24.0367 2.25977 23.5562 2.25977 22.9813V7.01875C2.25977 6.44375 2.45227 5.96375 2.83727 5.57875C3.2231 5.19292 3.70352 5 4.27852 5H20.241C20.816 5 21.296 5.19292 21.681 5.57875C22.0668 5.96375 22.2598 6.44375 22.2598 7.01875V12.5H21.0098V9.23125H3.50977V22.9813C3.50977 23.2054 3.58185 23.3896 3.72602 23.5337C3.87018 23.6779 4.05435 23.75 4.27852 23.75H19.7598V25H4.27852Z" fill="#222222"/>
</svg>
