<svg width="30" height="30" viewBox="0 0 24 15" fill="none" xmlns="http://www.w3.org/2000/svg">
<path d="M19.2904 14.4234V11.6109H15.7582V10.6734H19.2904V7.86094H20.4678V10.6734H24V11.6109H20.4678V14.4234H19.2904ZM1.90149 15C1.35989 15 0.907378 14.8556 0.543956 14.5669C0.181319 14.2775 0 13.9172 0 13.4859V1.51406C0 1.08281 0.181319 0.722812 0.543956 0.434062C0.907378 0.144687 1.35989 0 1.90149 0H16.9368C17.4784 0 17.9305 0.144687 18.2932 0.434062C18.6566 0.722812 18.8383 1.08281 18.8383 1.51406V5.625H17.6609V3.17344H1.17739V13.4859C1.17739 13.6541 1.24529 13.7922 1.38108 13.9003C1.51688 14.0084 1.69035 14.0625 1.90149 14.0625H16.4835V15H1.90149Z" fill="#039FA2"/>
</svg>
