<svg width="32" height="32" viewBox="0 0 32 32" fill="none" xmlns="http://www.w3.org/2000/svg">
<path d="M26.3334 20.578V4.33333C26.3334 3.97971 26.1929 3.64057 25.9429 3.39052C25.6928 3.14048 25.3537 3 25.0001 3H7.00008C6.64646 3 6.30732 3.14048 6.05727 3.39052C5.80722 3.64057 5.66675 3.97971 5.66675 4.33333V27.6667C5.66675 28.0203 5.80722 28.3594 6.05727 28.6095C6.30732 28.8595 6.64646 29 7.00008 29H25.0001C25.3537 29 25.6928 28.8595 25.9429 28.6095C26.1929 28.3594 26.3334 28.0203 26.3334 27.6667V26.6873" stroke="#039FA2" stroke-linecap="round" stroke-linejoin="round"/>
<path d="M24.7561 25.1067L14.1921 14.5167V11.5M24.7561 25.1067L27.8034 22.052M24.7561 25.1067L26.4967 26.8507C26.5967 26.9507 26.7154 27.0301 26.846 27.0843C26.9766 27.1384 27.1167 27.1663 27.2581 27.1663C27.3995 27.1663 27.5395 27.1384 27.6702 27.0843C27.8008 27.0301 27.9195 26.9507 28.0194 26.8507L29.5434 25.3233C29.7455 25.1205 29.8589 24.8459 29.8589 24.5597C29.8589 24.2734 29.7455 23.9988 29.5434 23.796L27.8034 22.052M14.1921 11.5H17.2801L27.8034 22.052M14.1921 11.5H8.66675M8.66675 7H23.3334M21.7681 16H23.3334M8.66675 16H15.6721M8.66675 20.5H19.9927M8.66675 25H23.3334" stroke="#039FA2" stroke-linecap="round" stroke-linejoin="round"/>
</svg>
