<svg width="24" height="25" viewBox="0 0 24 25" fill="none" xmlns="http://www.w3.org/2000/svg">
<path d="M6.5222 7.06049C6.79316 4.23795 9.16448 2.08337 12 2.08337C14.8355 2.08337 17.2068 4.23795 17.4778 7.06049L17.7901 10.3139C17.8153 10.5766 17.828 10.7079 17.8446 10.8371C17.9844 11.9212 18.3449 12.9651 18.9039 13.9045C18.9705 14.0164 19.0416 14.1276 19.1838 14.3498L20.055 15.711C20.9015 17.0336 21.3247 17.6949 21.0627 18.2061C21.0544 18.2222 21.0457 18.2381 21.0366 18.2538C20.7472 18.75 19.9621 18.75 18.3919 18.75H5.60813C4.0379 18.75 3.25279 18.75 2.96341 18.2538C2.95428 18.2381 2.94558 18.2222 2.93732 18.2061C2.67532 17.6949 3.09854 17.0336 3.94498 15.711L4.81615 14.3498C4.95839 14.1276 5.0295 14.0164 5.09612 13.9045C5.65505 12.9651 6.01555 11.9212 6.15538 10.8371C6.17204 10.7079 6.18465 10.5766 6.20987 10.3139L6.5222 7.06049Z" fill="#039FA2"/>
<path d="M10.0681 21.489C10.1821 21.5997 10.4332 21.6976 10.7825 21.7674C11.1318 21.8372 11.5597 21.875 12 21.875C12.4403 21.875 12.8682 21.8372 13.2175 21.7674C13.5668 21.6976 13.8179 21.5997 13.9319 21.489" stroke="#222222" stroke-width="2" stroke-linecap="round"/>
</svg>
