<svg width="6" height="6" viewBox="0 0 6 6" fill="none" xmlns="http://www.w3.org/2000/svg">
<path d="M0.0292969 2.45039C0.0117188 2.59102 0 2.73398 0 2.8793C0 4.15664 0.699609 5.26875 1.73555 5.8582L1.92891 5.45039V2.66484L1.71445 2.45039H0.0292969ZM6 2.66484C6 2.45039 5.78555 2.23594 5.57109 2.23594H3.85664C3.96328 1.80703 4.07109 1.3793 4.07109 1.16484C4.07109 0.735938 3.85664 0.308203 3.75 0.200391C3.74766 0.198047 3.64336 0.09375 3.42891 0.09375C3.10781 0.09375 3.10781 0.414844 3.10781 0.414844C3.10781 0.420703 3.00117 0.950391 3.00117 1.16484C3.00117 1.3793 2.57227 2.23594 2.35781 2.45039L2.14336 2.55703V5.55703L2.35781 5.66367H4.71445C5.14336 5.66367 5.35781 5.44922 5.35781 5.23477C5.35781 5.02031 5.14336 4.80586 4.92891 4.80586C5.35781 4.80586 5.57227 4.59141 5.57227 4.37695C5.57227 4.1625 5.35781 3.94805 5.14336 3.94805C5.57227 3.94805 5.78672 3.73359 5.78672 3.51914C5.78672 3.30469 5.57227 3.09023 5.35781 3.09023C5.78555 3.09375 6 2.8793 6 2.66484Z" fill="#2D63C7"/>
</svg>
