<svg width="24" height="25" viewBox="0 0 24 25" fill="none" xmlns="http://www.w3.org/2000/svg">
<path d="M4.82698 7.89682L5.27248 8.12381L4.82698 7.89682ZM5.26866 19.5448L5.62273 19.8978H5.62273L5.26866 19.5448ZM17.862 16.9318L17.635 16.4863L17.862 16.9318ZM19.173 15.6208L18.7275 15.3938L19.173 15.6208ZM19.173 7.89682L18.7275 8.12381V8.12381L19.173 7.89682ZM17.862 6.58577L18.089 6.14027V6.14027L17.862 6.58577ZM6.13803 6.58577L6.36502 7.03127L6.13803 6.58577ZM7.49006 17.3169L7.84412 17.67L7.49006 17.3169ZM5 11.0588C5 10.2105 5.00039 9.60428 5.03921 9.12911C5.07756 8.65978 5.15089 8.36245 5.27248 8.12381L4.38148 7.66982C4.17609 8.07292 4.08593 8.5165 4.04253 9.04768C3.99961 9.57302 4 10.227 4 11.0588H5ZM5 12.2923V11.0588H4V12.2923H5ZM4 12.2923V17.2588H5V12.2923H4ZM4 17.2588V17.3069H5V17.2588H4ZM4 17.3069V19.2271H5V17.3069H4ZM4 19.2271C4 20.0741 5.02467 20.4976 5.62273 19.8978L4.91459 19.1918C4.91748 19.1889 4.92805 19.1815 4.94318 19.1789C4.95557 19.1767 4.96418 19.1788 4.9691 19.1809C4.97402 19.1829 4.98161 19.1875 4.98886 19.1977C4.99771 19.2103 5 19.223 5 19.2271H4ZM5.62273 19.8978L7.84412 17.67L7.13599 16.9639L4.91459 19.1918L5.62273 19.8978ZM14.7 16.7588H7.53407V17.7588H14.7V16.7588ZM17.635 16.4863C17.3963 16.6079 17.099 16.6812 16.6297 16.7196C16.1545 16.7584 15.5483 16.7588 14.7 16.7588V17.7588C15.5318 17.7588 16.1858 17.7592 16.7111 17.7163C17.2423 17.6729 17.6859 17.5827 18.089 17.3773L17.635 16.4863ZM18.7275 15.3938C18.4878 15.8642 18.1054 16.2466 17.635 16.4863L18.089 17.3773C18.7475 17.0418 19.283 16.5063 19.6185 15.8478L18.7275 15.3938ZM19 12.4588C19 13.3071 18.9996 13.9133 18.9608 14.3885C18.9224 14.8578 18.8491 15.1551 18.7275 15.3938L19.6185 15.8478C19.8239 15.4447 19.9141 15.0011 19.9575 14.4699C20.0004 13.9446 20 13.2906 20 12.4588H19ZM19 11.0588V12.4588H20V11.0588H19ZM18.7275 8.12381C18.8491 8.36245 18.9224 8.65978 18.9608 9.12911C18.9996 9.60428 19 10.2105 19 11.0588H20C20 10.227 20.0004 9.57302 19.9575 9.04768C19.9141 8.5165 19.8239 8.07292 19.6185 7.66982L18.7275 8.12381ZM17.635 7.03127C18.1054 7.27096 18.4878 7.65341 18.7275 8.12381L19.6185 7.66982C19.283 7.01125 18.7475 6.47582 18.089 6.14027L17.635 7.03127ZM14.7 6.75879C15.5483 6.75879 16.1545 6.75918 16.6297 6.798C17.099 6.83635 17.3963 6.90968 17.635 7.03127L18.089 6.14027C17.6859 5.93488 17.2423 5.84472 16.7111 5.80132C16.1858 5.7584 15.5318 5.75879 14.7 5.75879V6.75879ZM9.3 6.75879H14.7V5.75879H9.3V6.75879ZM6.36502 7.03127C6.60366 6.90968 6.90099 6.83635 7.37032 6.798C7.84549 6.75918 8.45167 6.75879 9.3 6.75879V5.75879C8.46817 5.75879 7.81423 5.7584 7.28889 5.80132C6.75771 5.84472 6.31413 5.93488 5.91103 6.14027L6.36502 7.03127ZM5.27248 8.12381C5.51217 7.65341 5.89462 7.27096 6.36502 7.03127L5.91103 6.14027C5.25247 6.47582 4.71703 7.01126 4.38148 7.66982L5.27248 8.12381ZM8 17.2929C8 17.5502 7.79139 17.7588 7.53407 17.7588V16.7588C7.23912 16.7588 7 16.9979 7 17.2929H8ZM7.84412 17.67C7.94395 17.5698 8 17.4342 8 17.2929H7C7 17.1695 7.0489 17.0512 7.13599 16.9639L7.84412 17.67Z" fill="#575757"/>
<path d="M8.5 10.2865L15.5 10.2865" stroke="#222222" stroke-linecap="round" stroke-linejoin="round"/>
<path d="M8.5 13.2953L13.5 13.2953" stroke="#222222" stroke-linecap="round" stroke-linejoin="round"/>
</svg>
