<svg width="24" height="24" viewBox="0 0 24 24" fill="none" xmlns="http://www.w3.org/2000/svg">
<path fill-rule="evenodd" clip-rule="evenodd" d="M23.25 12C23.25 18.2132 18.2132 23.25 12 23.25C5.7868 23.25 0.75 18.2132 0.75 12C0.75 5.7868 5.7868 0.75 12 0.75C18.2132 0.75 23.25 5.7868 23.25 12ZM5.58579 17L6.29289 16.2929L10.5858 12L6.29289 7.70711L5.58579 7L7 5.58579L7.70711 6.29289L12 10.5858L16.2929 6.29289L17 5.58579L18.4142 7L17.7071 7.70711L13.4142 12L17.7071 16.2929L18.4142 17L17 18.4142L16.2929 17.7071L12 13.4142L7.70711 17.7071L7 18.4142L5.58579 17Z" fill="#E92727"/>
</svg>
