<svg width="9" height="9" viewBox="0 0 9 9" fill="none" xmlns="http://www.w3.org/2000/svg">
<path d="M8.09414 2.68615L8.10487 2.76071L7.98129 2.78384L7.96484 2.94266H8.11287L8.30979 2.92552L8.41144 2.81626L8.30339 2.77826L8.24422 2.71672L8.15536 2.5866L8.11287 2.40259L7.94588 2.43336L7.89905 2.49821V2.57132L7.97946 2.62109L8.09414 2.68615Z" fill="#808080"/>
<path d="M7.95279 2.74648L7.96172 2.64723L7.86344 2.60913L7.72597 2.63775L7.62402 2.78479V2.88013H7.74293L7.95279 2.74648Z" fill="#808080"/>
<path d="M5.13111 3.169L5.10087 3.23901H4.95447V3.30697H4.98929C4.98929 3.30697 4.99135 3.32138 4.99433 3.34033L5.08414 3.33353L5.14027 3.30223L5.15493 3.23901L5.22756 3.23345L5.2562 3.18032L5.18953 3.16797L5.13111 3.169Z" fill="#808080"/>
<path d="M4.75434 3.29181L4.74866 3.35735L4.85385 3.34943L4.86476 3.28369L4.8016 3.23926L4.75434 3.29181Z" fill="#808080"/>
<path d="M7.99916 4.42537C7.998 4.30806 7.99208 4.19156 7.98106 4.07688C7.94404 3.69457 7.85289 3.32809 7.71633 2.98455C7.70613 2.95898 7.69675 2.93307 7.6859 2.90783C7.50393 2.47667 7.24842 2.08412 6.93565 1.74537C6.91509 1.72326 6.89419 1.70148 6.8733 1.68003C6.81423 1.61848 6.75352 1.55842 6.69067 1.50083C5.97958 0.851541 5.0352 0.4552 3.99999 0.4552C2.95606 0.4552 2.00493 0.858636 1.29187 1.51783C1.1257 1.67145 0.973015 1.83909 0.834483 2.01862C0.311944 2.69646 0 3.54557 0 4.46679C0 6.67901 1.7945 8.47855 4.00015 8.47855C5.55165 8.47855 6.89863 7.58752 7.56168 6.28927C7.7035 6.01173 7.8139 5.71587 7.88826 5.40583C7.90719 5.32712 7.92347 5.24809 7.93762 5.16806C7.97793 4.94019 7.99998 4.70588 7.99998 4.46679C8.00014 4.45293 7.99932 4.43923 7.99916 4.42537ZM7.24628 2.82203L7.26948 2.79595C7.29991 2.85519 7.32838 2.91542 7.35553 2.97647L7.31768 2.97498L7.24628 2.98488V2.82203ZM6.66829 2.12208L6.66895 1.94288C6.7318 2.00971 6.79235 2.07851 6.85026 2.1498L6.7782 2.25738L6.52631 2.25507L6.51051 2.20243L6.66829 2.12208ZM1.84304 1.67673V1.66996H1.92316L1.93007 1.64241H2.0612V1.69983L2.02352 1.75032H1.84287L1.84304 1.67673ZM1.97104 1.85576C1.97104 1.85576 2.05116 1.84206 2.05807 1.84206C2.06498 1.84206 2.05807 1.92226 2.05807 1.92226L1.87742 1.93364L1.84304 1.89239L1.97104 1.85576ZM7.50113 3.44822H7.20844L7.03009 3.31506L6.84236 3.33337V3.44822H6.78297L6.7188 3.40235L6.3937 3.31968V3.10847L5.98172 3.14065L5.85405 3.20946H5.69051L5.61038 3.20137L5.4118 3.31192V3.51999L5.00591 3.8137L5.03964 3.93911H5.1219L5.10035 4.05857L5.04244 4.07985L5.03931 4.39204L5.39008 4.79267H5.54276L5.55198 4.76825H5.82641L5.90555 4.69483H6.06119L6.14658 4.78063L6.37856 4.80472L6.3478 5.1141L6.60528 5.57001L6.46971 5.82989L6.47892 5.95233L6.5857 6.05908V6.35345L6.72588 6.54255V6.78708H6.84697C6.17307 7.61689 5.1474 8.14837 3.99983 8.14837C1.97581 8.14854 0.329055 6.49684 0.329055 4.46679C0.329055 3.95577 0.433694 3.46868 0.622078 3.02597V2.91113L0.753371 2.75124C0.798945 2.66494 0.847809 2.58079 0.899965 2.49878L0.905888 2.56561L0.753535 2.75124C0.706316 2.84067 0.662223 2.93208 0.622243 3.02597V3.23553L0.774759 3.30912V3.60035L0.921024 3.85066L1.03998 3.86898L1.05528 3.78318L0.914937 3.56603L0.887461 3.35499H0.969724L1.00444 3.57214L1.2073 3.86898L1.15498 3.96485L1.28397 4.16269L1.60431 4.24222V4.19024L1.73247 4.20856L1.7203 4.3003L1.82099 4.31878L1.97647 4.36135L2.19611 4.61232L2.47663 4.63361L2.50411 4.86313L2.3121 4.99778L2.30305 5.20271L2.27558 5.32811L2.5533 5.67677L2.57452 5.79623C2.57452 5.79623 2.67522 5.82362 2.68755 5.82362C2.69973 5.82362 2.91329 5.98582 2.91329 5.98582V6.61597L2.98946 6.63742L2.93764 6.92816L3.0658 7.0996L3.04211 7.3877L3.21141 7.68619L3.42875 7.87661L3.64724 7.88057L3.66863 7.81011L3.50805 7.67448L3.51727 7.60716L3.54606 7.52465L3.55215 7.4405L3.44356 7.4372L3.38877 7.36823L3.47893 7.28127L3.49111 7.2156L3.39042 7.18673L3.39634 7.12567L3.53981 7.10389L3.75797 6.99879L3.83118 6.86414L4.06004 6.57043L4.00805 6.34075L4.0783 6.21848L4.28873 6.22491L4.43039 6.11238L4.47613 5.66918L4.63326 5.46903L4.66073 5.34049L4.51743 5.29445L4.42282 5.13885L4.09953 5.13555L3.84319 5.03754L3.83102 4.85422L3.74547 4.70423L3.51365 4.70077L3.37972 4.48989L3.26077 4.43164L3.25468 4.496L3.03816 4.50887L2.95886 4.39815L2.73296 4.35211L2.54688 4.56777L2.25402 4.51794L2.2328 4.18694L2.01908 4.15031L2.1048 3.98795L2.08028 3.89472L1.79944 4.08299L1.62273 4.06137L1.55972 3.92294L1.59822 3.78021L1.69562 3.60019L1.91987 3.48633L2.35291 3.48617L2.35175 3.61867L2.5074 3.69127L2.49506 3.46488L2.60727 3.35169L2.83365 3.20253L2.84912 3.09758L3.07485 2.86196L3.3149 2.72863L3.29367 2.71114L3.45623 2.55769L3.51579 2.57353L3.5431 2.60785L3.60479 2.53921L3.61993 2.53244L3.55231 2.52287L3.4837 2.49994V2.43393L3.52006 2.40407H3.60019L3.63688 2.42024L3.66863 2.48459L3.70746 2.47865V2.47304L3.71865 2.47684L3.83118 2.45951L3.84714 2.4044L3.91131 2.42057V2.4803L3.85175 2.52139H3.85191L3.86063 2.58689L4.06448 2.64993C4.06448 2.64993 4.06465 2.65075 4.06498 2.6524L4.11187 2.64844L4.11499 2.55983L3.95343 2.48608L3.94421 2.4435L4.0783 2.39763L4.08423 2.26893L3.94405 2.18329L3.93484 1.96631L3.74267 2.06102H3.67258L3.69101 1.89585L3.42941 1.83398L3.32115 1.91599V2.16613L3.12651 2.22801L3.04853 2.39103L2.96396 2.40473V2.19616L2.78101 2.17075L2.68953 2.11102L2.65267 1.97588L2.97992 1.78382L3.14 1.73498L3.15613 1.84289L3.2453 1.83827L3.25221 1.78398L3.3455 1.77062L3.34714 1.75164L3.307 1.73498L3.29779 1.67755L3.41246 1.66782L3.48173 1.59555L3.48551 1.59027L3.48634 1.5906L3.50739 1.56882L3.74843 1.53829L3.85504 1.62904L3.57551 1.77837L3.93122 1.86252L3.97728 1.74323H4.13276L4.18772 1.63927L4.07781 1.61172V1.48021L3.73313 1.32708L3.49522 1.35464L3.36097 1.4251L3.37018 1.59637L3.22984 1.57492L3.20828 1.48021L3.3427 1.35777L3.09871 1.34556L3.02862 1.36685L2.99818 1.44935L3.08966 1.46486L3.0714 1.55661L2.91592 1.56585L2.89157 1.6269L2.666 1.63317C2.666 1.63317 2.65975 1.50479 2.6507 1.50479C2.64165 1.50479 2.82757 1.50166 2.82757 1.50166L2.96199 1.36999L2.88861 1.33319L2.79104 1.42823L2.62915 1.41899L2.53158 1.28435H2.32411L2.1076 1.44655H2.30602L2.32411 1.50479L2.27262 1.55281L2.49226 1.55892L2.52582 1.63845L2.27854 1.62921L2.26653 1.56799L2.11105 1.53433L2.02862 1.48846L1.84353 1.48994C2.44948 1.04724 3.19463 0.785209 3.99999 0.785209C4.92825 0.785209 5.77639 1.1332 6.42348 1.70494L6.37988 1.78316L6.21058 1.84965L6.13917 1.92737L6.15563 2.01796L6.24299 2.03017L6.29564 2.16217L6.44635 2.10129L6.47119 2.27784H6.42578L6.30206 2.25952L6.16484 2.28263L6.03207 2.47073L5.8422 2.5006L5.81473 2.66362L5.89485 2.6826L5.87165 2.78737L5.6831 2.74942L5.51019 2.78737L5.4735 2.8839L5.50344 3.08653L5.60495 3.13421L5.77524 3.13322L5.89024 3.12283L5.92529 3.03109L6.10495 2.79694L6.22325 2.8212L6.33973 2.7156L6.36145 2.7981L6.64806 2.99198L6.61301 3.03917L6.48386 3.03224L6.53355 3.10286L6.61301 3.12035L6.70614 3.08141L6.70416 2.96888L6.74546 2.94809L6.71222 2.91278L6.52104 2.80585L6.4707 2.66379H6.62963L6.68047 2.71428L6.81736 2.83259L6.82311 2.97564L6.96494 3.12712L7.01775 2.91954L7.11597 2.86575L7.1344 3.03554L7.23032 3.14114L7.42167 3.13784C7.45868 3.23338 7.49192 3.33057 7.52104 3.42974L7.50113 3.44822ZM2.1818 2.27784L2.27788 2.23197L2.36475 2.25276L2.33481 2.36975L2.24103 2.39961L2.1818 2.27784ZM2.69167 2.55323V2.62897H2.47219L2.38992 2.60603L2.41049 2.55323L2.51595 2.50951H2.66008V2.55323H2.69167ZM2.79269 2.65884V2.73226L2.73774 2.76774L2.66929 2.78044C2.66929 2.78044 2.66929 2.67039 2.66929 2.65884H2.79269ZM2.73083 2.62897V2.54168L2.80634 2.61065L2.73083 2.62897ZM2.76521 2.80552V2.87697L2.71273 2.92977H2.59608L2.61434 2.84958L2.66946 2.8448L2.68081 2.81724L2.76521 2.80552ZM2.47466 2.65884H2.59591L2.44043 2.87681L2.37627 2.84232L2.39009 2.75058L2.47466 2.65884ZM2.9712 2.78044V2.85173H2.85455L2.82263 2.80552V2.73919H2.83185L2.9712 2.78044ZM2.86343 2.68243L2.89667 2.64745L2.95277 2.68243L2.90786 2.71956L2.86343 2.68243ZM7.56069 3.63401L7.57221 3.62048C7.57698 3.64127 7.58208 3.66206 7.58669 3.68318L7.56069 3.63401Z" fill="#808080"/>
<path d="M0.864014 3.5252V3.66894C0.919686 3.55163 0.981086 3.43722 1.04684 3.32507L0.864014 3.5252Z" fill="#808080"/>
</svg>
