<svg width="30" height="30" viewBox="0 0 30 30" fill="none" xmlns="http://www.w3.org/2000/svg">
<path d="M16.4645 3.75H11.25C8.89298 3.75 7.71447 3.75 6.98223 4.48223C6.25 5.21447 6.25 6.39298 6.25 8.75V21.25C6.25 23.607 6.25 24.7855 6.98223 25.5178C7.71447 26.25 8.89298 26.25 11.25 26.25H18.75C21.107 26.25 22.2855 26.25 23.0178 25.5178C23.75 24.7855 23.75 23.607 23.75 21.25V11.0355C23.75 10.5246 23.75 10.2691 23.6548 10.0394C23.5597 9.8097 23.3791 9.62906 23.0178 9.26777L18.2322 4.48223C17.8709 4.12095 17.6903 3.9403 17.4606 3.84515C17.2309 3.75 16.9754 3.75 16.4645 3.75Z" stroke="#33363F" stroke-width="2"/>
<path d="M11.25 16.25L18.75 16.25" stroke="#33363F" stroke-width="2" stroke-linecap="round"/>
<path d="M11.25 21.25L16.25 21.25" stroke="#33363F" stroke-width="2" stroke-linecap="round"/>
<path d="M16.25 3.75V8.75C16.25 9.92851 16.25 10.5178 16.6161 10.8839C16.9822 11.25 17.5715 11.25 18.75 11.25H23.75" stroke="#33363F" stroke-width="2"/>
</svg>
