<svg width="24" height="25" viewBox="0 0 24 25" fill="none" xmlns="http://www.w3.org/2000/svg">
<path fill-rule="evenodd" clip-rule="evenodd" d="M5.27446 10.5481C5 11.1697 5 11.8769 5 13.2912V17.7083C5 19.6725 5 20.6545 5.58579 21.2647C6.11733 21.8184 6.94285 21.8697 8.5 21.8745V16.6667C8.5 15.578 9.35735 14.625 10.5 14.625H13.5C14.6427 14.625 15.5 15.578 15.5 16.6667V21.8745C17.0572 21.8697 17.8827 21.8184 18.4142 21.2647C19 20.6545 19 19.6725 19 17.7083V13.2912C19 11.8769 19 11.1697 18.7255 10.5481C18.4511 9.92649 17.9356 9.46628 16.9047 8.54584L15.9047 7.65299C14.0414 5.98931 13.1098 5.15747 12 5.15747C10.8902 5.15747 9.95857 5.98931 8.09525 7.65299L7.09525 8.54584C6.06437 9.46628 5.54892 9.92649 5.27446 10.5481ZM13.5 21.8749V16.6667C13.5 16.6448 13.4931 16.6317 13.4878 16.625H10.5122C10.5069 16.6317 10.5 16.6448 10.5 16.6667V21.8749H13.5Z" fill="#575757"/>
</svg>
