<svg width="24" height="25" viewBox="0 0 24 25" fill="none" xmlns="http://www.w3.org/2000/svg">
<path d="M8.85 19.7588H6C5.44772 19.7588 5 19.3111 5 18.7588V12.7588C5 12.2065 5.44772 11.7588 6 11.7588H8.85C8.93284 11.7588 9 11.8259 9 11.9088V19.6088C9 19.6916 8.93284 19.7588 8.85 19.7588Z" stroke="#33363F" stroke-linecap="round"/>
<path d="M9 11.7588L10.8321 9.01071C10.9416 8.84645 11 8.65344 11 8.45601V5.75879C11 5.2065 11.4477 4.75879 12 4.75879H13C14.1046 4.75879 15 5.65422 15 6.75879V11.7588" stroke="#33363F" stroke-linecap="round"/>
<path d="M13 11.7588H17.7655C18.9575 11.7588 19.8849 12.7949 19.7532 13.9797L19.1977 18.9797C19.0851 19.9925 18.229 20.7588 17.2099 20.7588H13.4142C13.149 20.7588 12.8946 20.6534 12.7071 20.4659L12.2929 20.0517C12.1054 19.8641 11.851 19.7588 11.5858 19.7588H9" stroke="#575757" stroke-linecap="round"/>
</svg>
