<svg width="16" height="17" viewBox="0 0 16 17" fill="none" xmlns="http://www.w3.org/2000/svg">
<path fill-rule="evenodd" clip-rule="evenodd" d="M16 7C16 4.19108 16 2.78661 15.3259 1.77772C15.034 1.34096 14.659 0.965956 14.2223 0.674122C13.2134 0 11.8089 0 9 0H7C4.19108 0 2.78661 0 1.77772 0.674122C1.34096 0.965956 0.965956 1.34096 0.674122 1.77772C0 2.78661 0 4.19108 0 7C0 9.80892 0 11.2134 0.674122 12.2223C0.965956 12.659 1.34096 13.034 1.77772 13.3259C2.65907 13.9148 3.8423 13.9892 6 13.9986V14L7.10557 16.2111C7.4741 16.9482 8.5259 16.9482 8.89443 16.2111L10 14V13.9986C12.1577 13.9892 13.3409 13.9148 14.2223 13.3259C14.659 13.034 15.034 12.659 15.3259 12.2223C16 11.2134 16 9.80892 16 7ZM4 8C4.55228 8 5 7.55228 5 7C5 6.44772 4.55228 6 4 6C3.44772 6 3 6.44772 3 7C3 7.55228 3.44772 8 4 8ZM9 7C9 7.55228 8.55229 8 8 8C7.44772 8 7 7.55228 7 7C7 6.44772 7.44772 6 8 6C8.55229 6 9 6.44772 9 7ZM13 7C13 7.55228 12.5523 8 12 8C11.4477 8 11 7.55228 11 7C11 6.44772 11.4477 6 12 6C12.5523 6 13 6.44772 13 7Z" fill="#575757"/>
</svg>
