<svg width="18" height="21" viewBox="0 0 18 21" fill="none" xmlns="http://www.w3.org/2000/svg">
<path d="M17.27 14.265L17.975 10.185C18.0163 9.94588 18.005 9.70059 17.9416 9.46631C17.8783 9.23203 17.7646 9.01441 17.6084 8.82868C17.4522 8.64295 17.2573 8.49359 17.0373 8.39104C16.8173 8.2885 16.5776 8.23524 16.335 8.23501H11.154C11.033 8.23503 10.9136 8.20874 10.8039 8.15794C10.6941 8.10715 10.5968 8.03308 10.5186 7.94087C10.4403 7.84867 10.3831 7.74054 10.3509 7.624C10.3187 7.50746 10.3122 7.3853 10.332 7.26601L10.995 3.22101C11.1025 2.56424 11.0719 1.89225 10.905 1.24801C10.8335 0.98181 10.696 0.737989 10.505 0.539205C10.3141 0.340421 10.0761 0.193126 9.81296 0.111008L9.66796 0.0640081C9.34012 -0.0413021 8.9844 -0.0169665 8.67396 0.132008C8.33396 0.296008 8.08596 0.595008 7.99396 0.950008L7.51796 2.78401C7.36642 3.36764 7.14622 3.93124 6.86196 4.46301C6.44696 5.24001 5.80496 5.86301 5.13696 6.43801L3.69796 7.67801C3.49833 7.85052 3.34241 8.06788 3.24299 8.31227C3.14356 8.55666 3.10346 8.82113 3.12596 9.08401L3.93796 18.477C3.97375 18.8924 4.164 19.2793 4.47115 19.5613C4.7783 19.8432 5.18001 19.9998 5.59696 20H10.245C13.727 20 16.698 17.574 17.27 14.265Z" fill="#2A57AA"/>
<path fill-rule="evenodd" clip-rule="evenodd" d="M0.968078 7.48497C1.16134 7.47652 1.35039 7.54307 1.49574 7.67072C1.64109 7.79837 1.7315 7.97724 1.74808 8.16997L2.71808 19.406C2.73451 19.5733 2.71666 19.7422 2.66562 19.9024C2.61458 20.0626 2.53142 20.2107 2.42122 20.3377C2.31102 20.4646 2.17609 20.5678 2.02468 20.6409C1.87327 20.714 1.70855 20.7554 1.54058 20.7627C1.37261 20.77 1.20492 20.743 1.04775 20.6833C0.890583 20.6236 0.747232 20.5324 0.626457 20.4155C0.505682 20.2985 0.410016 20.1582 0.345304 20.003C0.280591 19.8478 0.248189 19.6811 0.250078 19.513V8.23397C0.25016 8.04065 0.324885 7.85483 0.458662 7.71528C0.59244 7.57573 0.774937 7.49322 0.968078 7.48497Z" fill="#2A57AA"/>
</svg>
