<svg width="3" height="13" viewBox="0 0 3 13" fill="none" xmlns="http://www.w3.org/2000/svg">
<path fill-rule="evenodd" clip-rule="evenodd" d="M1.5 3.40555C2.325 3.40555 3 2.7286 3 1.9012C3 1.07381 2.325 0.396851 1.5 0.396851C0.675 0.396851 0 1.07381 0 1.9012C0 2.7286 0.675 3.40555 1.5 3.40555ZM1.5 4.91014C0.675 4.91014 0 5.5871 0 6.41449C0 7.24189 0.675 7.91885 1.5 7.91885C2.325 7.91885 3 7.24189 3 6.41449C3 5.5871 2.325 4.91014 1.5 4.91014ZM1.5 9.42327C0.675 9.42327 0 10.1002 0 10.9276C0 11.755 0.675 12.432 1.5 12.432C2.325 12.432 3 11.755 3 10.9276C3 10.1002 2.325 9.42327 1.5 9.42327Z" fill="#A4A4A4"/>
</svg>
