<svg width="22" height="24" viewBox="0 0 22 24" fill="none" xmlns="http://www.w3.org/2000/svg">
<path d="M20.6489 6.62077L19.6567 6.49674L20.6489 6.62077C20.7595 5.73635 20.2715 4.88551 19.4522 4.53441L19.0583 5.45356L19.4522 4.53441L11.7878 1.24968C11.2847 1.03406 10.7153 1.03406 10.2122 1.24968L2.54778 4.53441C1.72855 4.88551 1.24051 5.73635 1.35106 6.62077L2.21405 13.5247C2.4342 15.2859 3.31517 16.8977 4.6787 18.034L9.71963 22.2347C10.4613 22.8528 11.5387 22.8528 12.2804 22.2347L17.3213 18.034C18.6848 16.8977 19.5658 15.2859 19.7859 13.5247L20.6489 6.62077Z" stroke="url(#paint0_linear_450_1049)" stroke-width="2" stroke-linecap="round"/>
<defs>
<linearGradient id="paint0_linear_450_1049" x1="19.75" y1="2" x2="9.51958" y2="21.2117" gradientUnits="userSpaceOnUse">
<stop stop-color="#00ACAF"/>
<stop offset="0.723958" stop-color="#308183"/>
</linearGradient>
</defs>
</svg>
