<svg width="30" height="30" viewBox="0 0 30 30" fill="none" xmlns="http://www.w3.org/2000/svg">
<path d="M7.99811 11.4967L9.43298 14.0077C9.70983 14.4922 9.84825 14.7344 9.84825 15C9.84825 15.2656 9.70983 15.5078 9.43298 15.9923L7.99811 18.5033C6.75981 20.6703 6.14066 21.7539 6.62348 22.2912C7.1063 22.8285 8.24961 22.3283 10.5362 21.3279L20.8119 16.8323L20.8119 16.8323C22.6074 16.0468 23.5051 15.654 23.5051 15C23.5051 14.346 22.6074 13.9532 20.8119 13.1677L10.5362 8.6721C8.24962 7.67171 7.1063 7.17151 6.62348 7.70883C6.14066 8.24615 6.75981 9.32966 7.99811 11.4967Z" stroke="url(#paint0_linear_445_963)" stroke-width="2"/>
<defs>
<linearGradient id="paint0_linear_445_963" x1="25" y1="6.25" x2="17.4568" y2="24.7517" gradientUnits="userSpaceOnUse">
<stop stop-color="#00ACAF"/>
<stop offset="0.723958" stop-color="#308183"/>
</linearGradient>
</defs>
</svg>
