<svg width="23" height="21" viewBox="0 0 23 21" fill="none" xmlns="http://www.w3.org/2000/svg">
<path d="M18 8.52842L18.3259 8.90758L18.767 8.52842L18.3259 8.14926L18 8.52842ZM13.625 17.3025C13.9011 17.3025 14.125 17.0786 14.125 16.8025C14.125 16.5263 13.9011 16.3025 13.625 16.3025L13.625 17.3025ZM13.9509 12.6685L18.3259 8.90758L17.6741 8.14926L13.2991 11.9102L13.9509 12.6685ZM18.3259 8.14926L13.9509 4.38831L13.2991 5.14663L17.6741 8.90758L18.3259 8.14926ZM18 8.02842L8.13704 8.02841L8.13704 9.02841L18 9.02842L18 8.02842ZM8.13704 17.3025L13.625 17.3025L13.625 16.3025L8.13704 16.3025L8.13704 17.3025ZM3.5 12.6655C3.5 15.2264 5.57607 17.3025 8.13704 17.3025L8.13704 16.3025C6.12836 16.3025 4.5 14.6741 4.5 12.6655L3.5 12.6655ZM8.13704 8.02841C5.57607 8.02841 3.5 10.1045 3.5 12.6655L4.5 12.6655C4.5 10.6568 6.12836 9.02841 8.13704 9.02841L8.13704 8.02841Z" fill="#575757"/>
</svg>
