<svg width="20" height="15" viewBox="0 0 20 15" fill="none" xmlns="http://www.w3.org/2000/svg">
<path d="M18.3333 0H1.66667C0.758333 0.0333333 0.0333333 0.758333 0 1.66667V13.3333C0.0333333 14.2417 0.758333 14.9667 1.66667 15H18.3333C19.2417 14.9667 19.9667 14.2417 20 13.3333V1.66667C19.9847 1.22952 19.8041 0.814452 19.4948 0.505154C19.1855 0.195856 18.7705 0.0153379 18.3333 0ZM18.3333 13.3333H1.66667V1.66667H18.3333V13.3333ZM11.6667 11.6667V10.625C11.6667 9.24167 8.88333 8.54167 7.5 8.54167C6.11667 8.54167 3.33333 9.24167 3.33333 10.625V11.6667H11.6667ZM7.5 3.33333C6.94747 3.33333 6.41756 3.55283 6.02686 3.94353C5.63616 4.33423 5.41667 4.86413 5.41667 5.41667C5.41667 5.69025 5.47055 5.96116 5.57525 6.21392C5.67995 6.46669 5.83341 6.69635 6.02686 6.88981C6.41756 7.28051 6.94747 7.5 7.5 7.5C7.77359 7.5 8.0445 7.44611 8.29726 7.34142C8.55002 7.23672 8.77968 7.08326 8.97314 6.88981C9.16659 6.69635 9.32005 6.46669 9.42475 6.21392C9.52945 5.96116 9.58333 5.69025 9.58333 5.41667C9.58333 5.14308 9.52945 4.87217 9.42475 4.61941C9.32005 4.36665 9.16659 4.13698 8.97314 3.94353C8.77968 3.75007 8.55002 3.59661 8.29726 3.49192C8.0445 3.38722 7.77359 3.33333 7.5 3.33333ZM11.6667 3.33333V4.16667H16.6667V3.33333H11.6667ZM11.6667 5V5.83333H16.6667V5H11.6667ZM11.6667 6.66667V7.5H15V6.66667H11.6667Z" fill="#575757"/>
</svg>
