<svg width="26" height="27" viewBox="0 0 26 27" fill="none" xmlns="http://www.w3.org/2000/svg">
<g filter="url(#filter0_d_149_11007)">
<path d="M6.67962 5.32038L7.29289 4.70711C7.68342 4.31658 8.31658 4.31658 8.70711 4.70711L11.2929 7.29289C11.6834 7.68342 11.6834 8.31658 11.2929 8.70711L9.50048 10.4995C9.2016 10.7984 9.1275 11.255 9.31653 11.6331C10.4093 13.8186 12.1814 15.5907 14.3669 16.6835C14.745 16.8725 15.2016 16.7984 15.5005 16.4995L17.2929 14.7071C17.6834 14.3166 18.3166 14.3166 18.7071 14.7071L21.2929 17.2929C21.6834 17.6834 21.6834 18.3166 21.2929 18.7071L20.6796 19.3204C18.5683 21.4317 15.2257 21.6693 12.837 19.8777L11.6286 18.9714C9.88504 17.6638 8.33622 16.115 7.02857 14.3714L6.12226 13.163C4.33072 10.7743 4.56827 7.43173 6.67962 5.32038Z" fill="#575757"/>
</g>
<defs>
<filter id="filter0_d_149_11007" x="-4" y="-2" width="32" height="33" filterUnits="userSpaceOnUse" color-interpolation-filters="sRGB">
<feFlood flood-opacity="0" result="BackgroundImageFix"/>
<feColorMatrix in="SourceAlpha" type="matrix" values="0 0 0 0 0 0 0 0 0 0 0 0 0 0 0 0 0 0 127 0" result="hardAlpha"/>
<feOffset/>
<feGaussianBlur stdDeviation="2"/>
<feComposite in2="hardAlpha" operator="out"/>
<feColorMatrix type="matrix" values="0 0 0 0 0 0 0 0 0 0 0 0 0 0 0 0 0 0 0.2 0"/>
<feBlend mode="normal" in2="BackgroundImageFix" result="effect1_dropShadow_149_11007"/>
<feBlend mode="normal" in="SourceGraphic" in2="effect1_dropShadow_149_11007" result="shape"/>
</filter>
</defs>
</svg>
