<svg width="34" height="34" viewBox="0 0 34 34" fill="none" xmlns="http://www.w3.org/2000/svg">
<path d="M24.0833 5.66666H25.95C27.7413 5.66666 28.637 5.66666 29.1935 6.22315C29.75 6.77965 29.75 7.67532 29.75 9.46666V11.3333M24.0833 28.3333H25.95C27.7413 28.3333 28.637 28.3333 29.1935 27.7768C29.75 27.2203 29.75 26.3247 29.75 24.5333V22.6667M9.91667 5.66666H8.05C6.25866 5.66666 5.36299 5.66666 4.8065 6.22315C4.25 6.77965 4.25 7.67532 4.25 9.46666V11.3333M9.91667 28.3333H8.05C6.25866 28.3333 5.36299 28.3333 4.8065 27.7768C4.25 27.2203 4.25 26.3247 4.25 24.5333V22.6667" stroke="#33363F" stroke-width="2" stroke-linecap="round"/>
<path fill-rule="evenodd" clip-rule="evenodd" d="M26.7552 17C26.7552 16.5118 26.6318 16.2741 26.3851 15.7987C25.336 13.7779 22.5989 9.91666 17 9.91666C11.4011 9.91666 8.664 13.7779 7.61492 15.7987C7.36814 16.2741 7.24475 16.5118 7.24475 17C7.24475 17.4882 7.36814 17.7259 7.61492 18.2012C8.664 20.2221 11.4011 24.0833 17 24.0833C22.5989 24.0833 25.336 20.2221 26.3851 18.2012C26.6318 17.7259 26.7552 17.4882 26.7552 17ZM17 21.25C19.3472 21.25 21.25 19.3472 21.25 17C21.25 14.6528 19.3472 12.75 17 12.75C14.6528 12.75 12.75 14.6528 12.75 17C12.75 19.3472 14.6528 21.25 17 21.25Z" fill="#575757"/>
</svg>
